<?xml version="1.0" standalone="no"?>
<!DOCTYPE svg PUBLIC "-//W3C//DTD SVG 20010904//EN"
 "http://www.w3.org/TR/2001/REC-SVG-20010904/DTD/svg10.dtd">
<svg version="1.0" xmlns="http://www.w3.org/2000/svg"
 width="513.000000pt" height="513.000000pt" viewBox="0 0 513.000000 513.000000"
 preserveAspectRatio="xMidYMid meet">
<metadata>
Created by potrace 1.14, written by Peter Selinger 2001-2017
</metadata>
<g transform="translate(0.000000,513.000000) scale(0.100000,-0.100000)"
fill="#000000" stroke="none">
<path d="M1270 4380 c-118 -32 -207 -80 -281 -152 -60 -58 -69 -73 -95 -149
-23 -70 -28 -101 -29 -186 l0 -102 -47 -30 c-67 -42 -72 -57 -73 -196 0 -112
2 -123 27 -165 14 -25 29 -62 33 -83 4 -20 10 -39 14 -41 16 -10 53 17 66 48
15 35 15 35 48 21 25 -10 65 -13 151 -10 106 4 118 3 136 -15 30 -30 33 -62
15 -137 -23 -92 -29 -164 -15 -173 19 -12 -57 -255 -114 -368 -14 -26 -49 -76
-80 -112 -30 -36 -87 -106 -126 -157 -87 -114 -156 -175 -240 -214 -36 -17
-76 -36 -90 -43 -30 -14 -70 -71 -70 -99 0 -25 51 -74 85 -83 51 -13 159 2
233 31 62 25 82 39 128 91 44 51 62 64 94 69 38 6 45 12 119 101 11 13 52 32
107 49 119 36 157 59 205 123 65 85 128 102 196 53 113 -82 220 -114 385 -115
78 -1 118 -5 118 -12 0 -18 -41 -137 -61 -176 -10 -20 -29 -40 -41 -43 -37
-11 -228 -102 -436 -207 -232 -116 -390 -219 -508 -331 -116 -109 -132 -150
-98 -249 20 -61 38 -75 119 -95 59 -14 80 -15 164 -4 53 6 138 22 188 35 l93
24 -15 -21 c-22 -31 -19 -115 5 -154 29 -48 73 -66 158 -67 68 -1 75 1 97 27
36 41 42 91 16 144 -11 24 -21 51 -21 60 0 9 -7 24 -16 34 -15 16 -13 18 22
28 21 6 48 8 61 5 41 -11 73 4 89 42 23 55 47 60 151 34 48 -13 105 -32 125
-42 21 -10 51 -17 68 -16 28 3 33 -1 45 -35 7 -20 19 -45 26 -54 26 -31 91
-53 161 -53 84 0 120 25 138 98 27 113 -38 211 -167 253 -40 13 -73 26 -73 30
0 6 28 20 182 85 64 27 77 30 82 18 3 -9 -1 -25 -9 -37 -21 -30 -19 -35 18
-53 29 -14 37 -14 77 0 38 13 42 13 26 0 -11 -7 -15 -14 -8 -14 6 0 9 -6 6
-14 -3 -8 -1 -17 4 -20 6 -3 12 1 16 9 3 8 12 15 21 15 21 0 19 26 -2 35 -13
4 -2 13 42 31 72 29 83 30 34 4 -20 -11 -39 -28 -42 -39 -4 -18 -3 -19 17 -7
11 8 44 19 71 24 28 6 64 16 80 23 l30 12 -30 7 c-16 3 -36 2 -44 -4 -10 -8
-12 -6 -10 8 3 11 22 26 49 36 l45 18 14 -32 c8 -17 14 -34 13 -37 0 -3 4 -6
11 -7 7 -1 41 -7 75 -13 49 -8 71 -8 93 2 51 20 75 97 56 170 -6 25 -3 28 68
59 72 32 92 51 78 72 -4 8 6 9 33 3 51 -10 93 -11 124 -1 24 6 26 4 37 -37 7
-25 24 -58 38 -75 51 -60 205 -88 262 -46 63 46 86 164 46 241 -21 41 -71 80
-112 89 -14 3 -60 15 -101 28 l-75 22 141 70 c170 85 249 138 330 218 85 86
117 143 116 212 -1 96 -51 159 -146 185 -55 15 -219 5 -326 -21 -47 -12 -142
-39 -211 -60 -70 -22 -131 -40 -138 -40 -6 0 -11 17 -11 40 0 22 -9 66 -20 97
-13 37 -20 84 -20 133 -1 66 -8 100 -34 160 -5 13 13 15 131 15 120 1 145 4
193 23 30 13 100 31 156 41 115 21 232 65 308 116 66 43 157 138 184 190 48
95 70 248 38 274 -19 16 -29 0 -49 -76 -40 -148 -158 -260 -332 -316 -101 -33
-347 -70 -488 -74 -133 -4 -141 -3 -260 30 -67 20 -142 40 -167 46 -25 6 -79
20 -120 32 -52 14 -146 24 -304 35 -318 20 -387 36 -485 111 -24 18 -48 33
-54 33 -25 0 -107 65 -117 93 -5 17 -17 38 -25 47 -14 15 -11 24 30 86 50 76
65 118 57 159 -9 51 -145 165 -247 208 -33 14 -96 46 -140 71 -44 25 -95 48
-115 51 -19 4 -64 13 -100 21 -107 26 -195 27 -280 4z m290 -23 c108 -22 188
-54 251 -98 14 -10 51 -28 83 -39 58 -22 190 -119 220 -161 9 -13 16 -38 16
-57 0 -36 -35 -113 -73 -158 -59 -72 -133 -185 -163 -251 -18 -39 -42 -77 -54
-83 -45 -24 -97 6 -136 80 -17 31 -19 60 -19 250 0 148 -5 229 -14 260 -15 51
-51 104 -84 122 -17 8 -13 0 15 -34 21 -26 43 -59 49 -75 14 -36 14 -222 0
-333 -14 -106 -14 -199 -2 -259 1 -2 9 3 19 13 18 15 20 15 38 -5 25 -28 67
-49 101 -50 23 -1 24 -2 6 -6 -12 -2 -50 3 -84 12 -34 8 -64 14 -65 12 -5 -5
86 -45 118 -51 31 -7 80 12 75 28 -2 6 9 19 25 28 15 10 28 23 28 28 0 6 4 9
9 6 5 -4 19 14 31 39 18 37 20 48 10 60 -9 11 -9 15 -1 15 6 0 10 4 8 9 -3 12
63 121 74 121 14 0 22 -91 10 -129 -6 -20 -25 -59 -43 -86 -39 -59 -173 -195
-208 -212 -104 -48 -146 -65 -187 -73 -27 -5 -59 -12 -73 -15 -67 -17 -118
-17 -143 0 l-26 17 12 -26 c14 -30 46 -46 92 -46 46 0 45 -16 -1 -24 -74 -14
-155 22 -197 88 -15 24 -27 46 -27 49 0 7 44 2 60 -8 9 -5 11 -4 6 3 -10 17
-6 16 69 -18 36 -16 63 -26 60 -21 -3 5 12 7 33 4 27 -4 42 -1 51 11 11 12 11
16 1 16 -7 0 -1 9 14 21 14 11 24 24 21 29 -10 16 46 42 79 37 l31 -6 -30 14
c-16 8 -55 14 -85 15 l-55 1 26 22 c15 12 42 34 60 49 l34 28 -40 -17 c-22 -9
-65 -41 -95 -70 -30 -28 -66 -57 -80 -63 -21 -9 -17 -9 25 -5 l50 4 -34 -15
c-37 -17 -121 -12 -121 7 0 6 8 9 18 8 32 -3 41 1 78 33 43 38 60 74 43 94
-10 12 -17 11 -48 -8 -20 -12 -43 -29 -51 -38 -27 -29 -121 -62 -175 -61 -55
0 -105 15 -105 30 0 5 -15 15 -32 22 -42 17 -58 33 -58 58 0 11 -5 23 -11 26
-6 4 -8 13 -5 21 3 8 1 14 -4 14 -10 0 -5 44 9 90 10 30 -3 68 -30 94 -17 15
-30 17 -72 12 l-52 -6 60 39 c68 43 107 101 107 158 0 74 -64 82 -81 9 -10
-40 -10 -39 -6 15 3 31 16 81 30 110 14 30 25 61 25 69 0 8 -14 -14 -31 -50
-32 -69 -50 -171 -43 -257 l4 -48 -11 40 c-15 56 -4 167 25 252 21 61 34 82
83 128 63 61 180 124 273 149 80 21 160 19 290 -7z m-592 -474 c6 -3 -30 -53
-38 -53 -11 0 -23 57 -15 70 4 6 14 5 28 -3 12 -6 23 -13 25 -14z m3476 -246
c-24 -77 -68 -149 -118 -195 -135 -125 -325 -195 -523 -194 -46 0 -85 -4 -88
-9 -4 -5 15 -9 42 -9 59 -1 42 -13 -42 -30 -117 -24 -292 -9 -279 24 3 9 -25
35 -78 73 -116 84 -117 83 -30 -4 106 -106 141 -176 148 -298 3 -50 12 -110
20 -134 8 -25 14 -64 14 -87 0 -30 5 -46 18 -53 14 -9 13 -10 -10 -11 -26 0
-28 3 -28 44 0 25 -5 48 -10 51 -7 4 -7 12 0 25 15 29 12 37 -6 12 -8 -12 -13
-26 -10 -31 5 -8 -42 -32 -68 -35 -9 -1 -22 -26 -13 -26 2 0 21 7 41 15 32 14
36 14 36 0 0 -8 -9 -15 -20 -15 -17 0 -18 -3 -9 -27 21 -57 -7 -91 -81 -98
-21 -2 -55 -11 -76 -20 -39 -16 -54 -14 -36 7 8 10 -1 13 -41 13 -64 0 -91 19
-137 94 -34 57 -41 96 -28 161 l7 35 -14 -30 c-11 -23 -14 -25 -14 -10 -1 21
10 73 24 114 5 17 4 21 -5 16 -6 -4 -3 10 8 31 20 41 38 104 28 104 -3 0 -16
-24 -28 -52 -22 -52 -23 -52 -28 -23 -4 22 -15 -11 -45 -130 l-40 -160 -5 55
c-6 60 -12 54 -30 -32 -17 -86 -63 -167 -131 -236 -71 -71 -194 -140 -165 -93
4 6 24 18 44 28 43 20 186 158 178 172 -3 5 1 11 9 15 8 3 15 10 15 16 0 6 -7
4 -16 -4 -8 -9 -20 -16 -25 -16 -5 0 -28 -13 -51 -30 -29 -21 -45 -27 -53 -20
-7 6 -19 8 -28 4 -10 -3 -17 1 -20 13 -3 12 -5 9 -6 -9 -1 -18 -7 -28 -16 -28
-9 0 -15 6 -14 13 9 67 -2 95 -91 235 -50 78 -95 152 -99 165 -5 12 -14 35
-20 51 -20 51 -22 21 -3 -40 10 -33 41 -93 69 -134 69 -103 102 -172 110 -228
3 -26 12 -58 20 -72 20 -35 4 -91 -44 -162 -89 -128 -103 -153 -103 -185 0
-21 -6 -36 -19 -42 -14 -8 -20 -26 -24 -73 -3 -38 -1 -68 5 -75 8 -10 7 -13
-3 -13 -8 0 -23 -18 -33 -40 -14 -28 -22 -37 -28 -28 -5 9 -8 6 -8 -8 0 -22
-42 -43 -48 -24 -2 6 -11 6 -23 0 -10 -6 -30 -8 -43 -4 -17 4 -31 0 -42 -11
-9 -9 -20 -13 -23 -8 -9 12 -34 15 -26 3 3 -5 0 -10 -8 -10 -7 0 -21 15 -30
33 -9 18 -16 25 -16 16 -1 -9 -8 -22 -16 -29 -13 -10 -15 -9 -16 11 0 22 -1
22 -8 4 -8 -19 -8 -19 -15 3 -9 27 22 87 45 87 8 0 15 -12 17 -28 l3 -28 21
26 c11 14 27 24 34 21 8 -3 14 -1 14 4 0 13 -37 13 -45 0 -3 -5 -14 -1 -25 10
-26 26 -45 17 -64 -31 -9 -22 -23 -39 -32 -39 -8 0 -12 -4 -9 -10 3 -5 1 -10
-4 -10 -6 0 -11 9 -11 21 0 11 -5 17 -10 14 -17 -10 -11 32 6 46 15 12 16 11
10 -11 -7 -21 -5 -20 12 7 14 20 32 34 54 38 18 4 42 14 54 22 40 26 93 183
114 337 11 87 32 139 64 161 17 12 17 15 4 15 -9 0 -20 -4 -23 -10 -3 -5 -11
-10 -16 -10 -6 0 -7 5 -3 12 4 7 3 8 -5 4 -6 -4 -9 -12 -6 -17 4 -5 -8 -9 -25
-9 -17 0 -41 -5 -52 -11 -18 -10 -20 -9 -15 5 5 11 1 16 -14 16 -11 0 -18 4
-14 9 3 6 -7 6 -27 0 -41 -11 -41 -11 -33 1 3 6 1 10 -5 10 -6 0 -8 5 -4 11 4
8 -1 9 -17 4 -21 -7 -22 -6 -10 9 12 14 9 16 -25 17 -31 0 -35 2 -19 9 16 7
12 9 -18 9 -24 1 -36 5 -32 12 7 10 -58 3 -77 -8 -12 -6 -10 -91 2 -98 6 -4
10 5 10 20 0 14 4 24 9 21 5 -4 12 0 14 6 3 7 6 -3 7 -22 1 -29 3 -32 10 -15
7 16 9 14 9 -15 1 -26 4 -31 11 -20 8 13 10 12 10 -2 0 -26 18 -22 23 5 4 20
4 20 6 -4 0 -14 8 -34 16 -45 14 -18 14 -18 15 8 l0 27 40 -38 c43 -41 48 -51
26 -51 -8 0 -24 -8 -36 -18 l-21 -17 31 -23 c27 -20 41 -23 96 -20 35 2 64 0
64 -4 0 -14 -135 -20 -214 -10 -163 21 -272 76 -375 190 -36 40 -88 87 -116
104 -52 32 -47 17 10 -32 16 -14 43 -38 60 -54 24 -23 20 -21 -25 9 -53 37
-150 85 -172 85 -17 0 34 -46 60 -54 27 -9 51 -48 33 -54 -8 -3 -6 -9 6 -18
10 -8 14 -14 8 -13 -5 1 -17 1 -25 0 -13 -1 -13 -2 0 -11 8 -5 12 -11 10 -13
-3 -2 -22 -16 -43 -31 -20 -16 -37 -34 -37 -41 0 -13 -34 -48 -41 -41 -2 2
-12 -11 -21 -30 -17 -33 -17 -33 5 -24 82 32 96 42 127 90 44 68 84 100 125
100 48 0 52 -17 8 -30 -45 -12 -66 -29 -117 -93 -43 -54 -85 -78 -176 -102
-89 -23 -116 -39 -152 -90 -20 -28 -44 -49 -65 -56 -44 -14 -55 -4 -14 13 43
18 120 116 185 235 55 100 71 163 46 178 -6 4 -10 -8 -10 -29 0 -42 -18 -86
-36 -86 -7 0 -18 -15 -24 -34 -6 -19 -17 -37 -25 -40 -10 -3 -12 0 -8 12 6 21
-31 -36 -40 -61 -4 -10 -11 -15 -17 -12 -5 3 -7 0 -4 -8 3 -8 0 -18 -7 -23 -8
-5 -10 -3 -4 7 5 8 0 6 -12 -4 -11 -10 -28 -35 -38 -57 -11 -24 -22 -37 -31
-33 -15 6 -76 -52 -97 -93 -8 -16 -25 -38 -36 -48 -21 -19 -22 -19 -15 -1 7
17 6 17 -13 -2 -11 -11 -29 -34 -39 -52 -10 -17 -21 -31 -24 -32 -62 -10 -80
0 -80 40 0 41 -27 74 -56 67 -12 -3 -26 -2 -29 4 -3 5 -14 10 -23 10 -15 -1
-14 -3 3 -16 11 -8 19 -20 17 -25 -1 -5 9 -2 22 6 24 16 25 15 40 -14 21 -40
20 -48 -9 -77 -23 -23 -53 -25 -40 -3 4 5 -1 9 -9 9 -10 0 -16 9 -16 23 l-1
22 -18 -22 -19 -22 -5 29 c-5 22 -10 27 -26 23 -16 -4 -19 -1 -14 15 7 30 42
57 98 78 97 35 192 111 262 208 21 28 62 80 93 116 134 154 161 201 218 380
31 100 41 146 45 230 4 58 9 120 13 138 7 33 24 54 24 29 0 -23 70 -96 114
-120 35 -19 56 -22 151 -21 111 0 144 9 193 49 9 8 55 42 102 77 118 87 184
159 225 242 42 84 61 175 45 206 -11 21 -11 21 18 6 17 -9 40 -28 52 -43 12
-15 19 -22 15 -15 -3 6 -3 12 0 12 14 0 61 -29 79 -49 21 -23 111 -55 201 -71
33 -5 145 -15 250 -20 212 -12 274 -20 390 -54 44 -13 100 -28 125 -34 25 -5
85 -21 134 -36 129 -38 242 -36 498 9 109 19 225 46 258 59 165 67 277 188
313 338 l12 53 3 -63 c2 -40 -3 -83 -14 -115z m-3534 83 c0 -5 -12 -10 -26
-10 -14 0 -23 4 -19 10 3 6 15 10 26 10 10 0 19 -4 19 -10z m-140 -215 l-6
-70 -8 53 c-4 30 -5 84 0 120 l8 67 5 -50 c4 -27 4 -81 1 -120z m17 -72 c-4
-3 0 -15 10 -25 9 -10 11 -18 5 -18 -14 0 -34 35 -25 44 3 3 9 6 11 6 3 0 2
-3 -1 -7z m1143 -16 c0 -2 -12 -14 -27 -28 l-28 -24 24 28 c23 25 31 32 31 24z
m-1005 -32 c24 -11 60 -19 89 -18 32 1 44 -2 35 -8 -27 -17 -91 -9 -136 16
-23 14 -43 28 -43 31 0 3 3 4 8 2 4 -2 25 -13 47 -23z m-59 -39 c-4 -18 -13
-39 -20 -45 -11 -9 -16 -3 -24 29 -9 37 -8 39 8 30 15 -8 20 -6 25 11 10 32
18 14 11 -25z m277 7 c-7 -2 -19 -2 -25 0 -7 3 -2 5 12 5 14 0 19 -2 13 -5z
m120 -10 c-7 -2 -21 -2 -30 0 -10 3 -4 5 12 5 17 0 24 -2 18 -5z m537 -28 c0
-6 -56 -35 -67 -35 -4 1 8 9 27 20 39 22 40 22 40 15z m2417 -491 c14 -37 -53
-119 -168 -203 -42 -31 -85 -61 -95 -67 -16 -9 -15 -11 13 -12 83 -2 293 187
293 263 0 13 4 14 20 5 47 -25 4 -108 -111 -213 -41 -37 -74 -73 -74 -80 0 -7
17 -26 38 -44 l38 -32 -56 -42 c-50 -38 -73 -61 -42 -43 66 39 135 94 187 151
35 37 56 57 47 43 -31 -45 -151 -161 -207 -200 -84 -57 -304 -162 -575 -273
-143 -58 -970 -416 -1099 -474 -101 -47 -600 -232 -761 -283 -156 -50 -297
-81 -390 -85 l-90 -4 76 9 c128 15 160 30 49 23 -90 -6 -94 -5 -77 11 9 10 17
32 17 51 0 18 3 35 8 38 4 2 1 2 -6 1 -7 -2 -42 -7 -78 -10 -47 -5 -62 -10
-50 -16 10 -6 14 -17 11 -31 -6 -25 3 -41 25 -50 8 -3 -1 -6 -20 -6 -49 -1
-75 20 -94 76 -9 25 -16 50 -16 53 0 4 24 6 53 5 36 -2 39 -1 10 2 -23 2 -46
10 -52 16 -8 10 3 12 52 10 37 -2 83 3 112 12 36 11 40 13 15 10 -102 -16
-150 -17 -165 -5 -8 7 -15 16 -15 21 0 17 118 134 192 190 42 33 119 84 170
116 91 55 365 196 481 247 l57 25 0 -40 c0 -23 -5 -39 -12 -39 -6 0 1 -14 17
-30 27 -28 28 -30 7 -30 -27 0 -37 -16 -14 -25 9 -4 63 -10 119 -13 126 -6
207 12 351 77 81 36 102 50 98 64 -2 10 6 25 21 37 14 11 20 20 12 20 -8 0 -6
6 7 16 14 12 15 14 3 11 -21 -7 -14 27 12 62 11 13 16 27 13 32 -3 5 2 6 11 3
9 -4 15 -2 13 3 -2 6 8 20 22 31 l25 21 -25 -5 c-22 -5 -19 0 19 34 24 21 41
43 38 49 -7 11 -120 10 -149 0 -48 -18 -54 -19 -38 -4 18 17 222 89 345 121
183 49 574 190 613 221 20 16 40 29 45 27 4 -1 7 2 7 8 0 5 11 10 25 10 13 0
30 7 37 15 19 22 322 114 423 128 17 2 74 5 128 6 80 1 99 -2 104 -15z m-2208
-247 c0 -9 -2 -8 -6 1 -2 6 -10 9 -15 6 -7 -4 -8 -2 -4 5 9 13 26 5 25 -12z
m699 -139 c-11 -16 -25 -23 -47 -23 -17 0 -31 5 -31 10 1 6 13 9 29 7 16 -2
33 4 41 13 19 23 24 18 8 -7z m-63 -40 c13 -2 -2 -11 -45 -27 -36 -13 -71 -26
-79 -29 -21 -8 31 66 54 76 14 7 25 6 35 -3 8 -7 24 -15 35 -17z m1175 -263
c30 -12 32 -13 10 -13 -14 0 -41 6 -60 13 -30 12 -32 13 -10 13 14 0 41 -6 60
-13z m-63 -21 c-3 -3 -12 -4 -19 -1 -8 3 -5 6 6 6 11 1 17 -2 13 -5z m256 -54
c39 -34 63 -102 53 -151 -26 -131 -119 -166 -191 -72 -30 39 -35 54 -35 100 0
60 9 84 48 126 35 37 80 37 125 -3z m-282 -15 c-19 -41 -35 -40 -39 3 -3 29
-1 32 26 32 l29 0 -16 -35z m-2820 7 c-13 -25 -42 -48 -68 -55 -34 -8 -28 0
16 22 21 11 41 27 44 36 4 8 9 15 12 15 3 0 1 -8 -4 -18z m2909 -27 c0 -8 -4
-15 -10 -15 -5 0 -7 7 -4 15 4 8 8 15 10 15 2 0 4 -7 4 -15z m-3263 -27 c-3
-8 -6 -5 -6 6 -1 11 2 17 5 13 3 -3 4 -12 1 -19z m3051 -15 c2 -20 -1 -24 -9
-16 -7 7 -9 19 -6 27 9 23 12 20 15 -11z m-58 -4 c25 -14 -29 -10 -75 6 l-40
14 50 -5 c28 -3 57 -10 65 -15z m160 13 c0 -5 -12 -14 -27 -21 l-28 -12 25 21
c29 22 30 23 30 12z m100 -27 c0 -5 -5 -3 -10 5 -5 8 -10 20 -10 25 0 6 5 3
10 -5 5 -8 10 -19 10 -25z m-170 5 c0 -5 -5 -10 -11 -10 -5 0 -7 5 -4 10 3 6
8 10 11 10 2 0 4 -4 4 -10z m107 -42 c-2 -13 -4 -5 -4 17 -1 22 1 32 4 23 2
-10 2 -28 0 -40z m-238 27 c14 -15 -14 -15 -51 -1 l-43 16 45 -5 c24 -3 46 -8
49 -10z m-4 -34 c-6 -5 -89 -41 -185 -81 -96 -40 -237 -99 -314 -132 -76 -32
-140 -57 -142 -55 -5 4 44 26 376 164 124 51 232 97 240 102 20 13 37 14 25 2z
m-141 -122 c8 -43 6 -70 -4 -39 l-8 25 -1 -24 c-1 -20 -3 -22 -17 -10 -9 7
-26 14 -37 16 -51 7 -52 15 -2 38 64 30 61 30 69 -6z m-584 -94 c0 -7 -7 -15
-15 -19 -13 -5 -15 5 -6 42 2 9 21 -11 21 -23z m580 0 c0 -27 -38 -55 -72 -54
-18 1 -25 3 -16 6 9 2 24 15 32 28 10 15 22 22 31 19 8 -4 15 -1 15 5 0 6 2
11 5 11 3 0 5 -7 5 -15z m-732 -215 c51 -48 70 -144 41 -212 -24 -58 -104 -72
-145 -27 -18 20 -17 20 12 4 16 -8 32 -15 35 -15 14 0 68 64 62 74 -4 7 -1 6
9 -1 8 -7 18 -10 21 -6 11 11 8 71 -4 79 -13 8 -30 -15 -22 -29 3 -5 -6 -2
-20 8 -31 20 -67 6 -67 -25 0 -30 -20 -24 -31 10 -6 16 -15 27 -20 24 -12 -7
-11 -51 1 -75 6 -10 8 -19 6 -19 -13 0 -36 62 -36 95 0 45 25 100 54 120 29
21 78 19 104 -5z m-481 -56 c-3 -3 -12 -4 -19 -1 -8 3 -5 6 6 6 11 1 17 -2 13
-5z m63 -14 c20 -6 21 -8 5 -8 -11 0 -29 3 -40 8 -25 11 1 11 35 0z m73 -21
c3 -13 1 -19 -6 -16 -15 5 -22 37 -9 37 5 0 12 -9 15 -21z m42 -9 c-3 -5 -10
-10 -16 -10 -5 0 -9 5 -9 10 0 6 7 10 16 10 8 0 12 -4 9 -10z m269 -45 c-6
-16 -24 -21 -24 -7 0 11 11 22 21 22 5 0 6 -7 3 -15z m-819 -95 c-3 -5 -14
-10 -23 -10 -15 0 -15 2 -2 10 20 13 33 13 25 0z m55 -50 c0 -10 -39 -1 -46
12 -3 5 -3 17 1 26 6 15 9 14 26 -7 10 -13 19 -27 19 -31z m-157 25 c-3 -9 -8
-14 -10 -11 -3 3 -2 9 2 15 9 16 15 13 8 -4z m128 -55 c5 0 9 -7 9 -15 0 -17
-16 -20 -26 -4 -3 6 -15 8 -26 6 -16 -5 -17 -3 -7 9 7 8 19 12 26 9 8 -3 19
-5 24 -5z m-6 -109 c-3 -6 -18 -11 -33 -10 l-27 1 30 13 c32 14 41 13 30 -4z"/>
<path d="M1235 4088 c-2 -13 -6 -52 -7 -88 l-3 -65 67 3 c37 1 84 10 107 21
l41 18 -23 21 c-12 11 -48 29 -79 39 -38 12 -58 23 -58 34 0 16 -19 39 -32 39
-4 0 -10 -10 -13 -22z m85 -82 c0 -3 -4 -8 -10 -11 -5 -3 -10 -1 -10 4 0 6 5
11 10 11 6 0 10 -2 10 -4z"/>
<path d="M1742 4030 c0 -19 2 -27 5 -17 2 9 2 25 0 35 -3 9 -5 1 -5 -18z"/>
<path d="M1468 3263 c7 -3 16 -2 19 1 4 3 -2 6 -13 5 -11 0 -14 -3 -6 -6z"/>
<path d="M2278 3508 c12 -99 -6 -167 -62 -241 -14 -19 -26 -37 -26 -40 0 -14
54 40 80 80 15 23 30 40 32 37 3 -3 6 13 6 35 0 23 3 45 7 50 8 14 -11 92 -28
108 -13 13 -14 9 -9 -29z"/>
<path d="M3415 3000 c27 -12 43 -12 25 0 -8 5 -22 9 -30 9 -10 0 -8 -3 5 -9z"/>
<path d="M1366 2934 c-8 -22 -8 -24 6 -21 9 1 12 -8 10 -27 -3 -20 0 -26 9
-21 9 6 11 2 6 -14 -4 -18 -3 -20 9 -10 8 6 14 7 14 2 0 -5 15 -15 34 -22 26
-11 32 -18 29 -35 -4 -19 -3 -19 9 3 11 21 21 24 83 26 84 3 185 38 192 66 3
11 10 19 16 19 6 0 8 2 5 5 -2 2 -36 -9 -74 -25 -121 -52 -220 -39 -303 39
-39 36 -37 36 -45 15z"/>
<path d="M1850 2703 c-24 -10 -42 -32 -37 -46 4 -9 6 -9 6 1 1 7 16 21 34 32
30 19 29 25 -3 13z"/>
<path d="M1291 2544 c0 -11 3 -14 6 -6 3 7 2 16 -1 19 -3 4 -6 -2 -5 -13z"/>
<path d="M1327 2427 c-11 -29 -9 -43 4 -30 6 6 9 19 7 29 -3 18 -4 18 -11 1z"/>
<path d="M1285 2390 c-16 -31 -29 -41 -19 -15 11 28 -6 15 -31 -25 -28 -44
-32 -58 -12 -41 8 6 16 9 19 6 9 -9 57 50 62 78 6 35 0 34 -19 -3z"/>
<path d="M2236 2022 c11 -9 26 -26 32 -37 6 -11 12 -15 12 -9 0 16 -39 64 -53
64 -7 -1 -3 -8 9 -18z"/>
<path d="M2290 2030 c8 -6 24 -15 35 -21 16 -8 15 -6 -4 10 -13 12 -28 21 -35
21 -6 0 -4 -5 4 -10z"/>
<path d="M2161 2004 c0 -11 3 -14 6 -6 3 7 2 16 -1 19 -3 4 -6 -2 -5 -13z"/>
<path d="M3545 2354 c-236 -107 -505 -222 -757 -325 -149 -60 -401 -167 -562
-238 -160 -71 -343 -148 -406 -172 -63 -23 -117 -44 -119 -46 -36 -27 201 49
436 140 144 56 1336 573 1413 613 40 21 113 75 100 73 -3 0 -50 -20 -105 -45z"/>
<path d="M4024 2334 c-18 -14 -18 -15 4 -4 12 6 22 13 22 15 0 8 -5 6 -26 -11z"/>
<path d="M3525 2258 c-66 -28 -401 -171 -745 -319 -344 -147 -724 -304 -845
-348 -121 -45 -239 -89 -262 -98 l-42 -15 29 -54 c17 -29 30 -55 30 -58 0 -2
-23 -12 -51 -21 -77 -26 -51 -29 38 -5 117 33 635 222 738 271 50 23 203 90
340 149 138 60 401 173 585 253 300 129 507 225 488 227 -4 0 -50 -20 -104
-45 -53 -25 -99 -43 -102 -40 -3 3 0 5 5 5 15 0 53 80 53 112 0 20 -21 43 -33
37 -1 0 -56 -23 -122 -51z"/>
<path d="M3870 2260 c-19 -11 -30 -19 -25 -19 6 0 26 8 45 19 19 11 31 19 25
19 -5 0 -26 -8 -45 -19z"/>
<path d="M4010 1923 c0 -13 -3 -14 -12 -5 -16 16 -28 15 -28 -3 0 -8 -7 -15
-16 -15 -8 0 -12 5 -9 10 3 6 4 10 0 10 -3 0 -10 -11 -15 -25 -5 -14 -16 -25
-25 -25 -18 0 -19 -5 -5 -31 14 -25 54 -26 48 -1 -4 13 3 21 28 29 25 7 34 7
34 -1 1 -11 40 31 40 43 0 3 -9 12 -20 19 -17 10 -20 10 -20 -5z"/>
<path d="M2859 1523 c-13 -16 -12 -17 4 -4 16 13 21 21 13 21 -2 0 -10 -8 -17
-17z"/>
</g>
</svg>
